<?xml version="1.0" standalone="no"?><!DOCTYPE svg PUBLIC "-//W3C//DTD SVG 1.1//EN" "http://www.w3.org/Graphics/SVG/1.1/DTD/svg11.dtd"><svg t="1716166851888" class="icon" viewBox="0 0 1024 1024" version="1.1" xmlns="http://www.w3.org/2000/svg" p-id="1525" xmlns:xlink="http://www.w3.org/1999/xlink" width="200" height="200"><path d="M981.333333 85.333333H42.666667c-25.6 0-42.666667 17.066667-42.666667 42.666667s17.066667 42.666667 42.666667 42.666667h42.666666v554.666666c0 46.933333 38.4 85.333333 85.333334 85.333334h68.266666l-115.2 115.2c-17.066667 17.066667-17.066667 42.666667 0 59.733333 8.533333 8.533333 21.333333 12.8 29.866667 12.8s21.333333-4.266667 29.866667-12.8L358.4 810.666667h307.2l174.933333 174.933333c8.533333 8.533333 21.333333 12.8 29.866667 12.8s21.333333-4.266667 29.866667-12.8c17.066667-17.066667 17.066667-42.666667 0-59.733333L785.066667 810.666667H853.333333c46.933333 0 85.333333-38.4 85.333334-85.333334V170.666667h42.666666c25.6 0 42.666667-17.066667 42.666667-42.666667s-17.066667-42.666667-42.666667-42.666667zM482.133333 584.533333l-76.8-76.8-119.466666 119.466667c-17.066667 17.066667-42.666667 17.066667-59.733334 0s-17.066667-42.666667 0-59.733333l149.333334-149.333334c17.066667-17.066667 42.666667-17.066667 59.733333 0l76.8 76.8L622.933333 384H554.666667c-25.6 0-42.666667-17.066667-42.666667-42.666667s17.066667-42.666667 42.666667-42.666666h170.666666c12.8 0 21.333333 4.266667 29.866667 12.8 8.533333 8.533333 12.8 17.066667 12.8 29.866666v170.666667c0 25.6-17.066667 42.666667-42.666667 42.666667s-42.666667-17.066667-42.666666-42.666667v-68.266667l-140.8 140.8c-17.066667 17.066667-42.666667 17.066667-59.733334 0z" fill="#606060" p-id="1526"></path></svg>